<?xml version="1.0" encoding="UTF-8" standalone="no"?>
<!-- Created with Inkscape (http://www.inkscape.org/) -->

<svg
   xmlns:dc="http://purl.org/dc/elements/1.1/"
   xmlns:cc="http://creativecommons.org/ns#"
   xmlns:rdf="http://www.w3.org/1999/02/22-rdf-syntax-ns#"
   xmlns:svg="http://www.w3.org/2000/svg"
   xmlns="http://www.w3.org/2000/svg"
   xmlns:sodipodi="http://sodipodi.sourceforge.net/DTD/sodipodi-0.dtd"
   xmlns:inkscape="http://www.inkscape.org/namespaces/inkscape"
   width="117.30311mm"
   height="30.339172mm"
   viewBox="0 0 117.30311 30.339172"
   version="1.1"
   id="svg8"
   inkscape:version="0.92.2 (5c3e80d, 2017-08-06)"
   sodipodi:docname="logo.svg"
   inkscape:export-filename="logo.png"
   inkscape:export-xdpi="108.26653"
   inkscape:export-ydpi="108.26653">
  <defs
     id="defs2" />
  <sodipodi:namedview
     id="base"
     pagecolor="#ffffff"
     bordercolor="#666666"
     borderopacity="1.0"
     inkscape:pageopacity="0.0"
     inkscape:pageshadow="2"
     inkscape:zoom="1.979899"
     inkscape:cx="218.17027"
     inkscape:cy="46.359416"
     inkscape:document-units="mm"
     inkscape:current-layer="layer1"
     showgrid="false"
     fit-margin-top="0"
     fit-margin-left="0"
     fit-margin-right="0"
     fit-margin-bottom="0"
     inkscape:pagecheckerboard="true"
     inkscape:window-width="1920"
     inkscape:window-height="1200"
     inkscape:window-x="-11"
     inkscape:window-y="-11"
     inkscape:window-maximized="1" />
  <metadata
     id="metadata5">
    <rdf:RDF>
      <cc:Work
         rdf:about="">
        <dc:format>image/svg+xml</dc:format>
        <dc:type
           rdf:resource="http://purl.org/dc/dcmitype/StillImage" />
        <dc:title></dc:title>
      </cc:Work>
    </rdf:RDF>
  </metadata>
  <g
     inkscape:label="Layer 1"
     inkscape:groupmode="layer"
     id="layer1"
     transform="translate(-35.318439,-73.439297)">
    <path
       style="fill:#ffffff;stroke:none;stroke-width:0.27868226px;stroke-linecap:butt;stroke-linejoin:miter;stroke-opacity:1"
       d="m 45.092859,85.090936 c 3.774238,-4.254896 16.974415,-8.810298 26.718629,-9.236279 9.744216,-0.42598 16.167249,-0.897971 26.409743,-0.897971 10.242539,0 61.011279,8.461385 44.479609,22.192725 C 126.16918,110.88075 57.233975,99.69018 47.100617,95.48175 36.967258,91.27332 41.31862,89.345832 45.092859,85.090936 Z"
       id="path827"
       inkscape:connector-curvature="0"
       sodipodi:nodetypes="zzzzzz" />
    <g
       aria-label="What's new,"
       transform="matrix(0.94079598,-0.07858909,0.08999266,1.0554122,0,0)"
       style="font-style:normal;font-weight:normal;font-size:17.94121361px;line-height:1.25;font-family:sans-serif;letter-spacing:0px;word-spacing:0px;fill:#0276b1;fill-opacity:1;stroke:#ffffff;stroke-width:0.5;stroke-miterlimit:4;stroke-dasharray:none;stroke-opacity:1"
       id="text817">
      <path
         d="m 35.965665,85.479026 -1.18412,4.054714 -3.265301,0.161471 -1.18412,-11.177376 h 3.355007 l 0.44853,4.28795 0.358824,-2.547652 2.852653,0.05382 0.394707,2.745006 0.825296,-4.539127 3.534419,0.358824 -1.273826,10.657081 -3.911185,-0.287059 z"
         style="font-style:normal;font-variant:normal;font-weight:normal;font-stretch:normal;font-family:'Soup of Justice';-inkscape-font-specification:'Soup of Justice';fill:#0276b1;fill-opacity:1;stroke:#ffffff;stroke-width:0.5;stroke-miterlimit:4;stroke-dasharray:none;stroke-opacity:1"
         id="path862"
         inkscape:connector-curvature="0" />
      <path
         d="m 48.849699,78.392246 3.408831,0.305001 0.44853,10.728846 -3.875302,0.08971 0.07176,-4.359715 h -1.776181 l -0.197353,4.305891 -3.606184,-0.05382 0.610001,-11.123552 3.229419,0.287059 -0.03588,4.000891 1.704416,0.01794 z"
         style="font-style:normal;font-variant:normal;font-weight:normal;font-stretch:normal;font-family:'Soup of Justice';-inkscape-font-specification:'Soup of Justice';fill:#0276b1;fill-opacity:1;stroke:#ffffff;stroke-width:0.5;stroke-miterlimit:4;stroke-dasharray:none;stroke-opacity:1"
         id="path864"
         inkscape:connector-curvature="0" />
      <path
         d="m 53.403965,89.228739 2.762947,-10.818551 4.88001,-0.07176 2.619417,10.908258 -3.426772,0.322941 -0.430589,-2.152945 h -2.51177 l -0.412648,2.152945 z m 5.777071,-4.646774 -0.699708,-3.355007 -0.59206,3.408831 z"
         style="font-style:normal;font-variant:normal;font-weight:normal;font-stretch:normal;font-family:'Soup of Justice';-inkscape-font-specification:'Soup of Justice';fill:#0276b1;fill-opacity:1;stroke:#ffffff;stroke-width:0.5;stroke-miterlimit:4;stroke-dasharray:none;stroke-opacity:1"
         id="path866"
         inkscape:connector-curvature="0" />
      <path
         d="m 71.66195,80.473427 -1.489121,0.08971 0.05382,8.845018 h -3.965008 l 0.538236,-8.647665 -2.36824,0.125589 0.08971,-2.619417 7.068838,-0.358824 z"
         style="font-style:normal;font-variant:normal;font-weight:normal;font-stretch:normal;font-family:'Soup of Justice';-inkscape-font-specification:'Soup of Justice';fill:#0276b1;fill-opacity:1;stroke:#ffffff;stroke-width:0.5;stroke-miterlimit:4;stroke-dasharray:none;stroke-opacity:1"
         id="path868"
         inkscape:connector-curvature="0" />
      <path
         d="m 75.747223,82.106078 -2.350299,0.05382 -0.44853,-4.180303 3.014124,-0.394706 z"
         style="font-style:normal;font-variant:normal;font-weight:normal;font-stretch:normal;font-family:'Soup of Justice';-inkscape-font-specification:'Soup of Justice';fill:#0276b1;fill-opacity:1;stroke:#ffffff;stroke-width:0.5;stroke-miterlimit:4;stroke-dasharray:none;stroke-opacity:1"
         id="path870"
         inkscape:connector-curvature="0" />
      <path
         d="m 77.444628,83.146668 q 0,0.03588 -0.05382,-0.14353 -0.05382,-0.179412 -0.08971,-0.484413 -0.03588,-0.322941 -0.01794,-0.735589 0.03588,-0.430589 0.179412,-0.861179 0.14353,-0.44853 0.466472,-0.879119 0.322941,-0.44853 0.879119,-0.789413 0.627943,-0.394707 1.47118,-0.574119 0.861178,-0.179412 1.614709,-0.215295 0.879119,-0.05382 1.794121,0.01794 l -0.197353,3.803538 q 0.107647,-0.05382 -0.07177,-0.179412 -0.179412,-0.125589 -0.502354,-0.233236 -0.305001,-0.125589 -0.699707,-0.215295 -0.394707,-0.08971 -0.753531,-0.05382 -0.340883,0.03588 -0.574119,0.233235 -0.215295,0.179412 -0.197353,0.59206 -0.03588,0.233236 0.215294,0.430589 0.269118,0.197354 0.681766,0.412648 0.430589,0.197354 0.915002,0.448531 0.484413,0.233236 0.915002,0.556177 0.44853,0.322942 0.73559,0.753531 0.305,0.430589 0.322942,1.02265 0,0.520295 -0.14353,0.986766 -0.125589,0.412648 -0.394707,0.861179 -0.251177,0.430589 -0.717648,0.75353 -0.645884,0.466472 -1.363533,0.681767 -0.717648,0.197353 -1.435297,0.233235 -0.699707,0.05382 -1.327649,-0.01794 -0.627943,-0.07176 -1.112356,-0.197353 -0.466471,-0.125589 -0.717648,-0.251177 -0.251177,-0.125589 -0.197354,-0.161471 l 0.197354,-2.422064 q 0.466471,0.125589 0.932943,0.161471 0.412648,0.03588 0.861178,0 0.466472,-0.05382 0.843237,-0.269118 0.28706,-0.197354 0.251177,-0.358824 -0.03588,-0.161471 -0.287059,-0.340884 -0.233236,-0.197353 -0.610002,-0.412647 -0.376765,-0.215295 -0.753531,-0.520296 -0.376765,-0.305 -0.681766,-0.699707 -0.287059,-0.394707 -0.376765,-0.932943 z"
         style="font-style:normal;font-variant:normal;font-weight:normal;font-stretch:normal;font-family:'Soup of Justice';-inkscape-font-specification:'Soup of Justice';fill:#0276b1;fill-opacity:1;stroke:#ffffff;stroke-width:0.5;stroke-miterlimit:4;stroke-dasharray:none;stroke-opacity:1"
         id="path872"
         inkscape:connector-curvature="0" />
      <path
         d="m 94.783132,78.392246 3.408831,0.305001 0.44853,10.728846 -3.875302,0.08971 -2.045298,-5.202952 0.143529,5.149128 -3.606183,-0.05382 0.610001,-11.123552 3.229418,0.287059 1.830004,4.610892 z"
         style="font-style:normal;font-variant:normal;font-weight:normal;font-stretch:normal;font-family:'Soup of Justice';-inkscape-font-specification:'Soup of Justice';fill:#0276b1;fill-opacity:1;stroke:#ffffff;stroke-width:0.5;stroke-miterlimit:4;stroke-dasharray:none;stroke-opacity:1"
         id="path874"
         inkscape:connector-curvature="0" />
      <path
         d="m 107.4886,89.318445 -8.109433,0.07176 0.412648,-10.926199 7.535305,-0.05382 q -0.0538,0.879119 -0.0897,1.578826 -0.0179,0.305001 -0.0359,0.59206 0,0.269119 -0.0179,0.502354 0,0.215295 0,0.340883 0,0.125589 0,0.125589 l -3.73177,0.01794 v 0.986767 l 2.78089,-0.03588 -0.25118,2.691182 -2.6553,0.08971 -0.0538,0.861178 q 1.14824,-0.01794 2.06324,-0.03588 0.39471,0 0.75353,0 0.37677,-0.01794 0.66383,-0.01794 0.305,-0.01794 0.48441,-0.01794 0.19735,0 0.19735,0 z"
         style="font-style:normal;font-variant:normal;font-weight:normal;font-stretch:normal;font-family:'Soup of Justice';-inkscape-font-specification:'Soup of Justice';fill:#0276b1;fill-opacity:1;stroke:#ffffff;stroke-width:0.5;stroke-miterlimit:4;stroke-dasharray:none;stroke-opacity:1"
         id="path876"
         inkscape:connector-curvature="0" />
      <path
         d="m 113.93285,85.479026 -1.18412,4.054714 -3.2653,0.161471 -1.18412,-11.177376 h 3.35501 l 0.44853,4.28795 0.35882,-2.547652 2.85265,0.05382 0.39471,2.745006 0.8253,-4.539127 3.53442,0.358824 -1.27383,10.657081 -3.91118,-0.287059 z"
         style="font-style:normal;font-variant:normal;font-weight:normal;font-stretch:normal;font-family:'Soup of Justice';-inkscape-font-specification:'Soup of Justice';fill:#0276b1;fill-opacity:1;stroke:#ffffff;stroke-width:0.5;stroke-miterlimit:4;stroke-dasharray:none;stroke-opacity:1"
         id="path878"
         inkscape:connector-curvature="0" />
      <path
         d="m 121.48835,88.008737 q 0,-0.376766 0.10765,-0.753531 0.12559,-0.376766 0.34088,-0.663825 0.2153,-0.305001 0.5203,-0.484413 0.305,-0.197353 0.68176,-0.197353 0.37677,0 0.71765,0.08971 0.34088,0.07176 0.59206,0.251177 0.26912,0.179412 0.43059,0.466471 0.16147,0.269119 0.16147,0.645884 0,0.322942 -0.10765,0.645884 -0.17941,0.466471 -0.44853,0.915002 -0.26912,0.430589 -0.61,0.807354 -0.32294,0.394707 -0.71765,0.663825 -0.37676,0.269118 -0.77147,0.394707 0.23324,-0.753531 0.305,-1.309709 -0.55618,-0.08971 -0.87912,-0.466471 -0.32294,-0.376766 -0.32294,-1.004708 z"
         style="font-style:normal;font-variant:normal;font-weight:normal;font-stretch:normal;font-family:'Soup of Justice';-inkscape-font-specification:'Soup of Justice';fill:#0276b1;fill-opacity:1;stroke:#ffffff;stroke-width:0.5;stroke-miterlimit:4;stroke-dasharray:none;stroke-opacity:1"
         id="path880"
         inkscape:connector-curvature="0" />
    </g>
    <g
       aria-label="Furry Blue?"
       transform="scale(0.94414058,1.0591643)"
       style="font-style:normal;font-weight:normal;font-size:17.94121361px;line-height:1.25;font-family:sans-serif;letter-spacing:0px;word-spacing:0px;fill:#0276b1;fill-opacity:1;stroke:#ffffff;stroke-width:0.5;stroke-miterlimit:4;stroke-dasharray:none;stroke-opacity:1"
       id="text821">
      <path
         d="m 67.741556,96.002702 0.699707,-10.370022 8.073546,-0.394706 q 0.05382,0.753531 0.107648,1.345591 0.01794,0.251177 0.03588,0.502354 0.01794,0.233235 0.01794,0.430589 0.01794,0.179412 0.01794,0.287059 0,0.107648 0,0.107648 0,0 -0.215295,0.01794 -0.197353,0.01794 -0.538236,0.07176 -0.322942,0.03588 -0.73559,0.107647 -0.412648,0.05382 -0.843237,0.107647 -1.022649,0.14353 -2.314417,0.322942 l -0.05382,1.345591 2.637358,0.08971 -0.287059,1.830004 -2.422064,0.03588 0.161471,3.911185 z"
         style="font-style:normal;font-variant:normal;font-weight:normal;font-stretch:normal;font-family:'Soup of Justice';-inkscape-font-specification:'Soup of Justice';fill:#0276b1;fill-opacity:1;stroke:#ffffff;stroke-width:0.5;stroke-miterlimit:4;stroke-dasharray:none;stroke-opacity:1"
         id="path841"
         inkscape:connector-curvature="0" />
      <path
         d="m 86.30006,92.593871 q 0,0.28706 -0.08971,0.681766 -0.08971,0.394707 -0.28706,0.825296 -0.179412,0.412648 -0.502354,0.825296 -0.305,0.394707 -0.771472,0.699707 -0.44853,0.305001 -1.058531,0.466472 -0.59206,0.161471 -1.381474,0.08971 -0.789413,-0.07176 -1.381473,-0.251177 -0.59206,-0.197353 -1.040591,-0.466472 -0.430589,-0.269118 -0.735589,-0.59206 -0.305001,-0.322941 -0.502354,-0.645883 -0.466472,-0.753531 -0.556178,-1.686474 l -0.502354,-7.212368 3.713831,-0.197354 0.358824,6.674132 q 0.08971,0.502354 0.340883,0.717648 0.269119,0.215295 0.538237,0.197354 0.269118,-0.03588 0.466471,-0.28706 0.215295,-0.251177 0.215295,-0.717648 v -6.620308 l 3.408831,0.161471 z"
         style="font-style:normal;font-variant:normal;font-weight:normal;font-stretch:normal;font-family:'Soup of Justice';-inkscape-font-specification:'Soup of Justice';fill:#0276b1;fill-opacity:1;stroke:#ffffff;stroke-width:0.5;stroke-miterlimit:4;stroke-dasharray:none;stroke-opacity:1"
         id="path843"
         inkscape:connector-curvature="0" />
      <path
         d="m 95.80498,94.065051 -2.027358,2.475887 -2.493828,-2.081181 -0.01794,1.740298 -3.552361,-0.143529 0.269118,-10.908258 2.6553,-0.125589 q 1.004708,-0.05382 1.740298,0.07176 0.73559,0.107647 1.255885,0.358824 0.520295,0.233236 0.879119,0.59206 0.358824,0.340883 0.627943,0.753531 0.197353,0.322942 0.340883,1.076473 0.143529,0.73559 0.107647,1.632651 -0.03588,0.879119 -0.358824,1.758238 -0.305001,0.861179 -1.022649,1.417356 z m -4.198244,-3.534419 q 0.59206,-0.197354 0.789413,-0.645884 0.215295,-0.44853 0.14353,-1.18412 -0.197354,-0.44853 -0.556178,-0.627943 -0.358824,-0.179412 -0.73559,-0.197353 l 0.01794,2.727065 q 0.08971,-0.01794 0.16147,-0.03588 0.08971,-0.01794 0.179413,-0.03588 z"
         style="font-style:normal;font-variant:normal;font-weight:normal;font-stretch:normal;font-family:'Soup of Justice';-inkscape-font-specification:'Soup of Justice';fill:#0276b1;fill-opacity:1;stroke:#ffffff;stroke-width:0.5;stroke-miterlimit:4;stroke-dasharray:none;stroke-opacity:1"
         id="path845"
         inkscape:connector-curvature="0" />
      <path
         d="m 104.46021,94.065051 -2.02735,2.475887 -2.493833,-2.081181 -0.01794,1.740298 -3.55236,-0.143529 0.269118,-10.908258 2.655299,-0.125589 q 1.004706,-0.05382 1.740296,0.07176 0.73559,0.107647 1.25589,0.358824 0.52029,0.233236 0.87912,0.59206 0.35882,0.340883 0.62794,0.753531 0.19735,0.322942 0.34088,1.076473 0.14353,0.73559 0.10765,1.632651 -0.0359,0.879119 -0.35883,1.758238 -0.305,0.861179 -1.02265,1.417356 z m -4.19824,-3.534419 q 0.59206,-0.197354 0.78941,-0.645884 0.2153,-0.44853 0.14353,-1.18412 -0.19735,-0.44853 -0.55618,-0.627943 -0.35882,-0.179412 -0.735585,-0.197353 l 0.01794,2.727065 q 0.0897,-0.01794 0.161475,-0.03588 0.0897,-0.01794 0.17941,-0.03588 z"
         style="font-style:normal;font-variant:normal;font-weight:normal;font-stretch:normal;font-family:'Soup of Justice';-inkscape-font-specification:'Soup of Justice';fill:#0276b1;fill-opacity:1;stroke:#ffffff;stroke-width:0.5;stroke-miterlimit:4;stroke-dasharray:none;stroke-opacity:1"
         id="path847"
         inkscape:connector-curvature="0" />
      <path
         d="m 111.51868,93.132108 -0.0718,3.067947 -4.35971,-0.143529 -0.10765,-2.924418 -2.67324,-7.876193 3.74971,-0.215295 1.18412,4.503245 1.32765,-4.718539 3.42678,0.610001 z"
         style="font-style:normal;font-variant:normal;font-weight:normal;font-stretch:normal;font-family:'Soup of Justice';-inkscape-font-specification:'Soup of Justice';fill:#0276b1;fill-opacity:1;stroke:#ffffff;stroke-width:0.5;stroke-miterlimit:4;stroke-dasharray:none;stroke-opacity:1"
         id="path849"
         inkscape:connector-curvature="0" />
      <path
         d="m 118.63882,85.255915 4.64677,-0.179412 q 0.80736,0.05382 1.48912,0.322942 0.28706,0.107647 0.57412,0.287059 0.305,0.179412 0.55618,0.430589 0.25118,0.251177 0.44853,0.574119 0.19735,0.322942 0.28706,0.753531 0.14353,0.753531 0.0179,1.32765 -0.10765,0.574119 -0.305,0.986767 -0.23324,0.484412 -0.59206,0.861178 0.37677,0.269118 0.68177,0.574119 0.32294,0.305 0.53823,0.681766 0.2153,0.376765 0.28706,0.861178 0.0718,0.466472 -0.0359,1.112355 -0.14353,0.843237 -0.55618,1.309709 -0.39471,0.466471 -0.78941,0.699707 -0.48441,0.269118 -1.04059,0.322942 -1.84795,-0.05382 -3.30119,-0.08971 -0.62794,-0.01794 -1.22,-0.01794 -0.59206,-0.01794 -1.05853,-0.03588 -0.44853,-0.01794 -0.73559,-0.01794 -0.28706,-0.01794 -0.28706,-0.01794 z m 3.2653,3.606184 1.18412,0.03588 q 0.43059,0.01794 0.59206,-0.197353 0.17941,-0.215295 0.28706,-0.717649 -0.0179,-0.233235 -0.12559,-0.394706 -0.0897,-0.161471 -0.23324,-0.251177 -0.14353,-0.107648 -0.305,-0.161471 -0.16147,-0.05382 -0.305,-0.07176 l -1.04059,0.07176 z m -0.34088,5.02354 1.63265,-0.05382 q 0.28706,-0.01794 0.59206,-0.107647 0.305,-0.08971 0.37676,-0.520295 -0.0718,-0.484413 -0.26912,-0.73559 -0.17941,-0.269118 -0.59206,-0.305001 l -1.63265,-0.125588 z"
         style="font-style:normal;font-variant:normal;font-weight:normal;font-stretch:normal;font-family:'Soup of Justice';-inkscape-font-specification:'Soup of Justice';fill:#0276b1;fill-opacity:1;stroke:#ffffff;stroke-width:0.5;stroke-miterlimit:4;stroke-dasharray:none;stroke-opacity:1"
         id="path851"
         inkscape:connector-curvature="0" />
      <path
         d="m 128.80925,96.146232 -0.23324,-11.2312 3.51648,0.215294 0.35882,7.67884 2.74501,0.07176 0.48441,3.247359 z"
         style="font-style:normal;font-variant:normal;font-weight:normal;font-stretch:normal;font-family:'Soup of Justice';-inkscape-font-specification:'Soup of Justice';fill:#0276b1;fill-opacity:1;stroke:#ffffff;stroke-width:0.5;stroke-miterlimit:4;stroke-dasharray:none;stroke-opacity:1"
         id="path853"
         inkscape:connector-curvature="0" />
      <path
         d="m 145.20471,92.593871 q 0,0.28706 -0.0897,0.681766 -0.0897,0.394707 -0.28706,0.825296 -0.17941,0.412648 -0.50235,0.825296 -0.305,0.394707 -0.77147,0.699707 -0.44853,0.305001 -1.05853,0.466472 -0.59206,0.161471 -1.38148,0.08971 -0.78941,-0.07176 -1.38147,-0.251177 -0.59206,-0.197353 -1.04059,-0.466472 -0.43059,-0.269118 -0.73559,-0.59206 -0.305,-0.322941 -0.50235,-0.645883 -0.46648,-0.753531 -0.55618,-1.686474 l -0.50236,-7.212368 3.71383,-0.197354 0.35883,6.674132 q 0.0897,0.502354 0.34088,0.717648 0.26912,0.215295 0.53824,0.197354 0.26912,-0.03588 0.46647,-0.28706 0.21529,-0.251177 0.21529,-0.717648 v -6.620308 l 3.40884,0.161471 z"
         style="font-style:normal;font-variant:normal;font-weight:normal;font-stretch:normal;font-family:'Soup of Justice';-inkscape-font-specification:'Soup of Justice';fill:#0276b1;fill-opacity:1;stroke:#ffffff;stroke-width:0.5;stroke-miterlimit:4;stroke-dasharray:none;stroke-opacity:1"
         id="path855"
         inkscape:connector-curvature="0" />
      <path
         d="m 154.29698,96.12829 -8.10943,0.07176 0.41265,-10.926199 7.53531,-0.05382 q -0.0538,0.87912 -0.0897,1.578827 -0.0179,0.305001 -0.0359,0.59206 0,0.269119 -0.0179,0.502354 0,0.215295 0,0.340883 0,0.125589 0,0.125589 l -3.73177,0.01794 v 0.986767 l 2.78088,-0.03588 -0.25117,2.691182 -2.6553,0.08971 -0.0538,0.861178 q 1.14824,-0.01794 2.06324,-0.03588 0.39471,0 0.75353,0 0.37677,-0.01794 0.66383,-0.01794 0.305,-0.01794 0.48441,-0.01794 0.19736,0 0.19736,0 z"
         style="font-style:normal;font-variant:normal;font-weight:normal;font-stretch:normal;font-family:'Soup of Justice';-inkscape-font-specification:'Soup of Justice';fill:#0276b1;fill-opacity:1;stroke:#ffffff;stroke-width:0.5;stroke-miterlimit:4;stroke-dasharray:none;stroke-opacity:1"
         id="path857"
         inkscape:connector-curvature="0" />
      <path
         d="m 155.86123,91.947988 q 0,-0.574119 0.16147,-1.004708 0.17942,-0.430589 0.41265,-0.73559 0.25118,-0.322942 0.5203,-0.556178 0.26911,-0.233236 0.48441,-0.430589 0.23323,-0.215294 0.37676,-0.394707 0.14353,-0.179412 0.10765,-0.412647 0.0179,-0.394707 -0.21529,-0.574119 -0.2153,-0.179412 -0.55618,-0.215295 -0.32294,-0.03588 -0.71765,0.05382 -0.37676,0.07177 -0.68176,0.197353 -0.30501,0.107647 -0.48442,0.233236 -0.16147,0.125588 -0.0718,0.179412 L 155.018,84.610031 q 0.87911,-0.07177 1.74029,-0.01794 0.73559,0.03588 1.54295,0.197353 0.80735,0.161471 1.43529,0.556178 0.80736,0.502354 1.16618,1.094414 0.35883,0.59206 0.44853,1.112355 0.0897,0.502354 0.0179,0.861179 -0.0538,0.340883 -0.0897,0.394706 -0.50236,0.771472 -0.95089,1.202062 -0.44853,0.430589 -0.77147,0.735589 -0.305,0.28706 -0.46647,0.538237 -0.14353,0.251177 -0.0359,0.627942 z m -0.17941,2.870594 q 0,0.753531 0.44853,1.130296 0.44853,0.376766 1.20206,0.376766 0.37677,0 0.71765,-0.197354 0.34088,-0.197353 0.59206,-0.502354 0.26912,-0.305 0.43059,-0.681766 0.16147,-0.394706 0.16147,-0.771472 0,-0.376765 -0.16147,-0.645884 -0.16147,-0.287059 -0.43059,-0.466471 -0.25118,-0.179412 -0.59206,-0.251177 -0.34088,-0.08971 -0.71765,-0.08971 -0.37676,0 -0.68176,0.197353 -0.305,0.179412 -0.5203,0.484413 -0.21529,0.287059 -0.34088,0.663825 -0.10765,0.376765 -0.10765,0.753531 z"
         style="font-style:normal;font-variant:normal;font-weight:normal;font-stretch:normal;font-family:'Soup of Justice';-inkscape-font-specification:'Soup of Justice';fill:#0276b1;fill-opacity:1;stroke:#ffffff;stroke-width:0.5;stroke-miterlimit:4;stroke-dasharray:none;stroke-opacity:1"
         id="path859"
         inkscape:connector-curvature="0" />
    </g>
  </g>
</svg>
