<?xml version="1.0" encoding="UTF-8" standalone="no"?>
<!-- Created with Inkscape (http://www.inkscape.org/) -->

<svg
   xmlns:dc="http://purl.org/dc/elements/1.1/"
   xmlns:cc="http://creativecommons.org/ns#"
   xmlns:rdf="http://www.w3.org/1999/02/22-rdf-syntax-ns#"
   xmlns:svg="http://www.w3.org/2000/svg"
   xmlns="http://www.w3.org/2000/svg"
   xmlns:sodipodi="http://sodipodi.sourceforge.net/DTD/sodipodi-0.dtd"
   xmlns:inkscape="http://www.inkscape.org/namespaces/inkscape"
   width="589.94342mm"
   height="106.83408mm"
   viewBox="0 0 589.94342 106.83408"
   version="1.1"
   id="svg8"
   inkscape:version="0.92.2 (5c3e80d, 2017-08-06)"
   sodipodi:docname="logo-vert.svg"
   inkscape:export-filename="logo-verticle.png"
   inkscape:export-xdpi="35.649517"
   inkscape:export-ydpi="35.649517">
  <defs
     id="defs2" />
  <sodipodi:namedview
     id="base"
     pagecolor="#ffffff"
     bordercolor="#666666"
     borderopacity="1.0"
     inkscape:pageopacity="0.0"
     inkscape:pageshadow="2"
     inkscape:zoom="0.35"
     inkscape:cx="550.56891"
     inkscape:cy="291.42334"
     inkscape:document-units="mm"
     inkscape:current-layer="layer1"
     showgrid="false"
     fit-margin-top="0"
     fit-margin-left="0"
     fit-margin-right="0"
     fit-margin-bottom="0"
     inkscape:pagecheckerboard="true"
     inkscape:window-width="1920"
     inkscape:window-height="1200"
     inkscape:window-x="-11"
     inkscape:window-y="-11"
     inkscape:window-maximized="1" />
  <metadata
     id="metadata5">
    <rdf:RDF>
      <cc:Work
         rdf:about="">
        <dc:format>image/svg+xml</dc:format>
        <dc:type
           rdf:resource="http://purl.org/dc/dcmitype/StillImage" />
        <dc:title />
      </cc:Work>
    </rdf:RDF>
  </metadata>
  <g
     inkscape:label="Layer 1"
     inkscape:groupmode="layer"
     id="layer1"
     transform="translate(248.22141,3.8365319)">
    <g
       aria-label="Bark"
       transform="scale(1.003864,0.99615088)"
       style="font-style:normal;font-weight:normal;font-size:117.18486023px;line-height:1.25;font-family:sans-serif;letter-spacing:0px;word-spacing:0px;fill:#000000;fill-opacity:1;stroke:none;stroke-width:2.92962146;stroke-opacity:1"
       id="text832">
      <path
         d="m -243.82856,4.8816638 40.46785,-1.5624649 q 7.03109,0.4687395 12.96845,2.8124368 2.49995,0.937479 4.99989,2.4999439 2.65619,1.5624644 4.84364,3.7499154 2.18745,2.187451 3.90617,4.999888 1.71871,2.812437 2.49994,6.562353 1.24997,6.562352 0.15625,11.56224 -0.93748,4.999888 -2.65619,8.593557 -2.03121,4.218655 -5.15614,7.499831 3.28118,2.343698 5.93737,4.999888 2.81243,2.656191 4.68739,5.937367 1.87496,3.281176 2.49995,7.499831 0.62498,4.062409 -0.3125,9.687283 -1.24997,7.343585 -4.84364,11.405994 -3.43742,4.062408 -6.87484,6.093613 -4.21866,2.343697 -9.0623,2.81244 -16.09339,-0.468743 -28.74935,-0.781236 -5.46863,-0.156246 -10.62477,-0.156246 -5.15613,-0.156247 -9.21854,-0.312493 -3.90616,-0.156247 -6.4061,-0.156247 -2.49995,-0.156246 -2.49995,-0.156246 z m 28.43687,31.4055442 10.31226,0.312493 q 3.74992,0.156247 5.15614,-1.718711 1.56246,-1.874958 2.49994,-6.24986 -0.15624,-2.031204 -1.09372,-3.437422 -0.78124,-1.406219 -2.03121,-2.187451 -1.24997,-0.937479 -2.65619,-1.406219 -1.40622,-0.468739 -2.65619,-0.624986 l -9.06229,0.624986 z m -2.96869,43.749018 14.21843,-0.46874 q 2.49995,-0.156246 5.15614,-0.937479 2.65619,-0.781232 3.28117,-4.531148 -0.62498,-4.218655 -2.34369,-6.406106 -1.56247,-2.343697 -5.15614,-2.65619 l -14.21843,-1.093726 z"
         style="font-style:normal;font-variant:normal;font-weight:normal;font-stretch:normal;font-size:156.24649048px;font-family:'Soup of Justice';-inkscape-font-specification:'Soup of Justice';fill:#000000;fill-opacity:1;stroke:none;stroke-width:2.92962146;stroke-opacity:1"
         id="path826" />
      <path
         d="m -162.91241,98.785805 24.06196,-94.2166342 42.499048,-0.6249859 22.811987,94.9978661 -29.843075,2.812439 -3.74992,-18.749581 h -21.87451 l -3.59367,18.749581 z m 50.31137,-40.467841 -6.09361,-29.218094 -5.15613,29.686833 z"
         style="font-style:normal;font-variant:normal;font-weight:normal;font-stretch:normal;font-size:156.24649048px;font-family:'Soup of Justice';-inkscape-font-specification:'Soup of Justice';fill:#000000;fill-opacity:1;stroke:none;stroke-width:2.92962146;stroke-opacity:1"
         id="path828" />
      <path
         d="M 4.9988519,81.598691 -12.657001,103.16071 -34.375264,85.036113 -34.53151,100.19202 -65.468315,98.942051 -63.124618,3.9441849 -40.000137,2.8504594 q 8.749803,-0.4687394 15.155909,0.624986 6.406106,0.9374789 10.937255,3.1249298 4.5311478,2.0312044 7.6560776,5.1561338 3.1249298,2.968684 5.46862718,6.562353 1.7187114,2.812437 2.96868332,9.374789 Q 3.436387,34.099758 3.123894,41.912082 2.8114011,49.56816 -0.00103577,57.224238 -2.6572261,64.72407 -8.9070857,69.567711 Z M -31.562827,50.818132 q 5.156134,-1.718711 6.874846,-5.624874 1.874958,-3.906162 1.249972,-10.312268 -1.718712,-3.906162 -4.843642,-5.468627 -3.124929,-1.562465 -6.406106,-1.718712 l 0.156247,23.749467 q 0.781232,-0.156247 1.406218,-0.312493 0.781233,-0.156246 1.562465,-0.312493 z"
         style="font-style:normal;font-variant:normal;font-weight:normal;font-stretch:normal;font-size:156.24649048px;font-family:'Soup of Justice';-inkscape-font-specification:'Soup of Justice';fill:#000000;fill-opacity:1;stroke:none;stroke-width:2.92962146;stroke-opacity:1"
         id="path830" />
      <path
         d="M 8.5022058,3.7879384 36.939067,5.5066498 37.876546,27.224912 64.594696,3.3191989 q 5.78112,6.2498596 10.312268,11.4059941 1.874958,2.187451 3.749916,4.374901 1.874958,2.031205 3.281176,3.749916 1.406219,1.562465 2.187451,2.656191 0.781233,0.937479 0.781233,0.937479 l -32.49927,28.749354 34.217981,26.24941 q -5.78112,6.093613 -10.156022,10.937254 -1.874958,2.031205 -3.749916,4.062409 -1.718711,1.874958 -3.124929,3.437423 -1.406219,1.56246 -2.187451,2.49994 -0.781233,0.93748 -0.624986,0.93748 L 41.938955,85.504853 42.563941,100.34827 H 8.0334663 Z"
         style="font-style:normal;font-variant:normal;font-weight:normal;font-stretch:normal;font-size:156.24649048px;font-family:'Soup of Justice';-inkscape-font-specification:'Soup of Justice';fill:#000000;fill-opacity:1;stroke:none;stroke-width:2.92962146;stroke-opacity:1"
         id="path832" />
    </g>
    <g
       aria-label="Pack"
       transform="scale(1.003864,0.99615088)"
       style="font-style:normal;font-weight:normal;font-size:117.18486023px;line-height:1.25;font-family:sans-serif;letter-spacing:0px;word-spacing:0px;fill:#000000;fill-opacity:1;stroke:none;stroke-width:2.92962146;stroke-opacity:1"
       id="text836">
      <path
         d="m 141.15384,83.380354 q -1.74996,0.656235 -3.39055,1.421843 -1.53122,0.656235 -3.28118,1.312471 -1.64058,0.546862 -3.71866,0.984353 -1.96871,0.328117 -4.59365,0.328117 l -0.10937,13.780942 -23.95259,0.10937 3.39055,-69.342191 16.734,1.093725 q 6.12486,0.43749 10.39039,1.531216 4.3749,1.093725 7.32796,2.734313 3.06243,1.640589 5.03114,3.828039 1.9687,2.187451 3.60929,4.70302 1.53122,3.281176 2.18745,7.437333 0.54687,3.499921 0.43749,8.421686 0,4.812391 -1.64059,10.718509 -0.98435,3.390549 -2.51556,5.577999 -1.42185,2.078079 -2.73432,3.281177 -1.31247,1.203098 -2.29682,1.640588 -0.87498,0.43749 -0.87498,0.43749 z M 128.576,69.818159 q 4.3749,-1.312471 5.79674,-4.593647 1.53122,-3.390549 0.98435,-8.749804 -1.53121,-3.171803 -4.15615,-4.484274 -2.51557,-1.421843 -5.24988,-1.531215 l 0.10937,19.905802 q 0.65623,-0.109372 1.2031,-0.218745 0.65623,-0.109372 1.31247,-0.328117 z"
         style="font-style:normal;font-variant:normal;font-weight:normal;font-stretch:normal;font-size:109.37254333px;font-family:'Soup of Justice';-inkscape-font-specification:'Soup of Justice';fill:#000000;fill-opacity:1;stroke:none;stroke-width:2.92962146;stroke-opacity:1"
         id="path835" />
      <path
         d="m 154.1948,100.22373 16.84338,-65.951648 29.74933,-0.43749 15.96839,66.498508 -20.89016,1.9687 -2.62494,-13.124701 h -15.31215 l -2.51557,13.124701 z m 35.21796,-28.327493 -4.26553,-20.452666 -3.60929,20.780784 z"
         style="font-style:normal;font-variant:normal;font-weight:normal;font-stretch:normal;font-size:109.37254333px;font-family:'Soup of Justice';-inkscape-font-specification:'Soup of Justice';fill:#000000;fill-opacity:1;stroke:none;stroke-width:2.92962146;stroke-opacity:1"
         id="path837" />
      <path
         d="m 280.4825,92.567648 q 0,0.109372 -2.95306,1.968706 -2.95306,1.859333 -8.09357,3.718666 -5.03113,1.85933 -11.81223,2.84369 -6.7811,0.87498 -14.43718,-0.98436 -3.93741,-0.98435 -7.10921,-2.73431 -3.06243,-1.859334 -5.46863,-4.26553 -2.29682,-2.406195 -4.04678,-5.031137 -1.64059,-2.734313 -2.73432,-5.468627 -2.73431,-6.234235 -3.49992,-13.671568 -0.76561,-6.89047 0.65624,-13.124705 0.65623,-2.624941 1.74996,-5.359254 1.20309,-2.843687 3.1718,-5.468628 1.96871,-2.624941 4.81239,-4.921764 2.95306,-2.296823 6.99984,-3.937412 6.01549,-2.515568 12.79659,-2.843686 6.89047,-0.328117 12.68722,0.43749 6.78109,0.874981 13.34345,2.734314 l -6.12487,20.233921 q -2.07807,-1.749961 -4.81239,-2.843687 -2.29682,-0.87498 -5.46862,-1.203098 -3.06244,-0.43749 -6.56236,0.874981 -1.9687,0.656235 -3.82804,2.078078 -1.85933,1.312471 -3.39054,3.281176 -1.42185,1.968706 -2.18746,4.593647 -0.65623,2.515569 -0.32811,5.578 1.31247,8.749803 7.21858,10.281019 5.90612,1.421843 15.31216,-4.484274 z"
         style="font-style:normal;font-variant:normal;font-weight:normal;font-stretch:normal;font-size:109.37254333px;font-family:'Soup of Justice';-inkscape-font-specification:'Soup of Justice';fill:#000000;fill-opacity:1;stroke:none;stroke-width:2.92962146;stroke-opacity:1"
         id="path839" />
      <path
         d="m 285.72041,33.725219 19.90581,1.203098 0.65623,15.202784 18.70271,-16.733999 q 4.04678,4.374902 7.21858,7.984195 1.31247,1.531216 2.62495,3.062432 1.31247,1.421843 2.29682,2.624941 0.98435,1.093725 1.53121,1.859333 0.54687,0.656235 0.54687,0.656235 l -22.74949,20.124548 23.95258,18.374587 q -4.04678,4.26553 -7.10921,7.656079 -1.31247,1.421843 -2.62494,2.843686 -1.2031,1.31247 -2.18745,2.406192 -0.98436,1.09373 -1.53122,1.74996 -0.54686,0.65624 -0.43749,0.65624 l -17.39023,-12.46847 0.43749,10.39039 H 285.3923 Z"
         style="font-style:normal;font-variant:normal;font-weight:normal;font-stretch:normal;font-size:109.37254333px;font-family:'Soup of Justice';-inkscape-font-specification:'Soup of Justice';fill:#000000;fill-opacity:1;stroke:none;stroke-width:2.92962146;stroke-opacity:1"
         id="path841" />
    </g>
    <g
       transform="matrix(0.19197833,0,0,0.17246378,11.216457,54.186934)"
       inkscape:label="Layer 1"
       id="layer1-7"
       style="fill:#000000">
      <g
         transform="matrix(2.2607235,-0.01654088,0.12712078,2.4951403,-1156.8886,-1555.322)"
         id="g4158"
         style="fill:#000000">
        <g
           transform="matrix(0.67279929,-1.5186523e-4,-0.00128814,0.69569916,338.19976,145.83075)"
           style="fill:#000000;fill-opacity:1"
           id="g4705">
          <path
             sodipodi:nodetypes="sssss"
             inkscape:connector-curvature="0"
             id="path3950"
             d="m 592.49553,524.1496 c 0,7.61279 -4.71627,9.2516 -10.98875,11.23585 -6.59099,2.085 -15.47882,-5.24473 -15.47882,-12.85752 0,-7.6128 7.94255,-17.95418 14.53356,-17.95418 6.59097,0 11.93401,11.96306 11.93401,19.57585 z"
             style="fill:#000000;fill-opacity:1;stroke:none" />
          <path
             sodipodi:nodetypes="sssss"
             inkscape:connector-curvature="0"
             id="path3950-8"
             d="m 568.86377,547.48385 c 0,7.61279 -4.71626,9.25159 -10.98876,11.23584 -6.59099,2.08499 -15.4788,-5.24473 -15.4788,-12.85752 0,-7.61279 7.94254,-17.95418 14.53353,-17.95418 6.59098,0 11.93403,11.96307 11.93403,19.57586 z"
             style="fill:#000000;fill-opacity:1;stroke:none" />
          <path
             sodipodi:nodetypes="sssss"
             inkscape:connector-curvature="0"
             id="path3950-8-8"
             d="m 622.03523,521.53715 c 0,7.6128 -4.71628,9.25161 -10.98878,11.23584 -6.59098,2.085 -15.4788,-5.24472 -15.4788,-12.85751 0,-7.61279 7.94254,-17.95418 14.53354,-17.95418 6.59098,0 11.93404,11.96306 11.93404,19.57585 z"
             style="fill:#000000;fill-opacity:1;stroke:none" />
          <path
             sodipodi:nodetypes="sssss"
             inkscape:connector-curvature="0"
             id="path3950-8-8-2"
             d="m 642.59487,546.09385 c 0,7.61278 -4.71627,9.25159 -10.98877,11.23584 -6.59099,2.085 -15.4788,-5.24472 -15.4788,-12.85752 0,-7.61278 7.94254,-17.95417 14.53354,-17.95417 6.59097,0 11.93403,11.96306 11.93403,19.57585 z"
             style="fill:#000000;fill-opacity:1;stroke:none" />
          <path
             sodipodi:nodetypes="csccsccc"
             inkscape:connector-curvature="0"
             id="path3806"
             d="m 591.14675,538.99253 c -10.43858,0.10692 -12.43121,1.47616 -20.44817,17.72107 -9.86692,19.99352 9.60144,26.9789 19.14105,27.0626 l 6.08291,0.0134 c 9.53076,-0.0767 30.15822,-7.07228 20.28625,-27.07603 -8.01696,-16.24492 -10.23952,-17.61416 -20.6781,-17.72107 -1.63517,-0.0421 -2.96692,-0.031 -4.38394,0 z"
             style="fill:#000000;fill-opacity:1;stroke:none" />
        </g>
        <g
           id="text4140"
           style="font-style:normal;font-weight:normal;font-size:16.83867264px;line-height:125%;font-family:sans-serif;letter-spacing:0px;word-spacing:0px;fill:#000000;fill-opacity:1;stroke:none;stroke-width:1px;stroke-linecap:butt;stroke-linejoin:miter;stroke-opacity:1"
           transform="matrix(1.0413578,0.00690341,-0.05351362,0.95168954,7.9837361,-19.986022)">
          <path
             inkscape:connector-curvature="0"
             id="path4147"
             style="font-style:normal;font-variant:normal;font-weight:100;font-stretch:normal;font-size:75.77402496px;font-family:Kabel;-inkscape-font-specification:'Kabel Thin';fill:#000000;fill-opacity:1"
             d="m 701.13802,548.80073 h -15.29766 v 46.1906 l -15.6548,1.30953 v -47.50013 h -16.42862 l 4.2262,-14.6429 h 43.15488 z" />
        </g>
      </g>
    </g>
  </g>
</svg>
